<svg width="259" height="114" viewBox="0 0 259 114" fill="none" xmlns="http://www.w3.org/2000/svg">
<path d="M78.86 86.2199C78.86 95.5532 76.2466 102.517 71.02 107.11C65.7933 111.703 58.27 114 48.45 114C45.2913 113.977 42.1427 113.642 39.05 113C36.0198 112.4 33.1081 111.309 30.43 109.77C27.8522 108.26 25.6288 106.214 23.91 103.77C22.0721 101.072 20.9976 97.9281 20.8 94.6699H34.44C34.7309 96.3619 35.4161 97.9617 36.44 99.3399C37.3624 100.51 38.5253 101.468 39.85 102.15C41.2187 102.841 42.6976 103.288 44.22 103.47C45.8792 103.669 47.5488 103.769 49.22 103.77C54.7266 103.77 58.7566 102.413 61.31 99.6999C63.86 96.9899 65.1399 93.0699 65.1399 87.9699V78.5099H64.9C63.069 81.8445 60.3569 84.6119 57.06 86.5099C53.8116 88.4088 50.1126 89.4 46.35 89.3799C41.9948 89.5102 37.6685 88.6306 33.71 86.8099C30.3266 85.1591 27.375 82.7417 25.09 79.7499C22.7587 76.6587 21.0597 73.1382 20.09 69.3899C19.0269 65.2853 18.5025 61.0598 18.53 56.8199C18.5583 52.8217 19.2442 48.8555 20.56 45.0799C21.7566 41.4683 23.6262 38.1159 26.07 35.1999C28.49 32.3472 31.4899 30.0428 34.87 28.4399C38.5559 26.7103 42.5891 25.8482 46.66 25.9199C50.3937 25.8793 54.0841 26.7222 57.43 28.3799C60.7288 30.0378 63.3816 32.747 64.97 36.0799H65.21V27.5799H78.86V86.2199ZM48.57 78.6799C51.1218 78.7877 53.6567 78.2181 55.9172 77.0291C58.1776 75.84 60.0831 74.0738 61.44 71.9099C62.7999 69.7836 63.7748 67.4344 64.32 64.9699C64.9092 62.3979 65.2111 59.7685 65.22 57.1299C65.2081 54.5448 64.8722 51.9714 64.22 49.4699C63.6491 47.1246 62.6782 44.8953 61.35 42.8799C60.0296 40.9664 58.2616 39.4044 56.2 38.3299C53.8427 37.1563 51.2321 36.5827 48.6 36.6599C45.9183 36.5684 43.2647 37.2301 40.94 38.5699C38.9062 39.8239 37.1939 41.5361 35.94 43.5699C34.623 45.7039 33.6921 48.0531 33.19 50.5099C32.6308 53.0485 32.3492 55.6404 32.35 58.2399C32.3519 60.7664 32.6882 63.2816 33.35 65.7199C33.9375 68.048 34.9292 70.2548 36.28 72.2399C37.5805 74.1474 39.2883 75.7424 41.28 76.9099C43.5088 78.139 46.0256 78.7501 48.57 78.6799Z" fill="black"/>
<path d="M85.6 27.56H98.54V36.66L98.78 36.9C100.759 33.5556 103.561 30.7739 106.92 28.82C110.296 26.853 114.143 25.8371 118.05 25.88C124.843 25.88 130.193 27.6366 134.1 31.15C138.007 34.6633 139.96 39.93 139.96 46.95V89.45H126.35V50.54C126.19 45.68 125.153 42.1466 123.24 39.94C121.327 37.7333 118.327 36.6366 114.24 36.65C112.097 36.6201 109.973 37.0497 108.01 37.91C106.224 38.7155 104.634 39.8995 103.35 41.38C102.038 42.9171 101.021 44.6834 100.35 46.59C99.6224 48.6275 99.2569 50.7765 99.27 52.94V89.45H85.6V27.56Z" fill="black"/>
<path d="M0.51001 27.5599H14.15V89.4599H0.51001V27.5599Z" fill="black"/>
<path d="M213.23 62.0799C213.217 64.4301 213.554 66.7691 214.23 69.0199C214.86 71.1566 215.899 73.1503 217.29 74.8899C218.687 76.5905 220.447 77.9572 222.44 78.8899C224.77 79.9393 227.306 80.4519 229.86 80.3899C233.86 80.3899 237.073 79.5299 239.5 77.8099C242.09 75.8765 243.999 73.1694 244.95 70.0799H257.88C256.598 76.3641 253.009 81.9403 247.82 85.7099C245.298 87.5287 242.484 88.9051 239.5 89.7799C236.374 90.7039 233.13 91.1655 229.87 91.1499C225.443 91.237 221.044 90.4239 216.94 88.7599C213.312 87.2549 210.061 84.9671 207.42 82.0599C204.759 79.0787 202.759 75.5686 201.55 71.7599C200.182 67.5054 199.507 63.0587 199.55 58.5899C199.532 54.3291 200.249 50.0971 201.67 46.0799C202.991 42.2607 205.028 38.7278 207.67 35.6699C210.368 32.5335 213.725 30.0321 217.503 28.3448C221.28 26.6575 225.384 25.8261 229.52 25.9099C234.07 25.8207 238.572 26.8509 242.63 28.9099C246.399 30.8604 249.691 33.6195 252.27 36.9899C254.865 40.4403 256.755 44.3686 257.83 48.5499C258.992 52.9371 259.298 57.5071 258.73 62.0099L213.23 62.0799ZM245.07 53.0799C244.915 50.9482 244.454 48.8499 243.7 46.8499C242.988 44.9368 241.93 43.1708 240.58 41.6399C239.228 40.1549 237.602 38.946 235.79 38.0799C233.829 37.1493 231.681 36.6806 229.51 36.7099C227.271 36.6772 225.049 37.1026 222.98 37.9599C221.09 38.7609 219.388 39.946 217.98 41.4399C216.556 42.9566 215.417 44.7183 214.62 46.6399C213.77 48.6844 213.299 50.8667 213.23 53.0799H245.07Z" fill="black"/>
<path d="M0.540024 4.17994H2.54002V0.569946H5.20002V4.17994H7.60002V6.17994H5.20002V12.6099C5.20002 12.8599 5.20002 13.0999 5.20002 13.3399C5.22165 13.5197 5.27948 13.6932 5.37002 13.8499C5.45951 13.9919 5.59296 14.1008 5.75002 14.1599C5.97421 14.2409 6.21181 14.2782 6.45002 14.2699H7.01003C7.19858 14.2587 7.38588 14.232 7.57002 14.1899V16.2399L6.71002 16.3299C6.42439 16.3613 6.13735 16.3779 5.85002 16.3799C5.2803 16.3887 4.71196 16.3214 4.16002 16.1799C3.78099 16.0737 3.43628 15.8703 3.16002 15.5899C2.90531 15.3097 2.73539 14.9629 2.67002 14.5899C2.57569 14.1527 2.52543 13.7072 2.52002 13.2599V6.15995H0.52002L0.540024 4.17994Z" fill="black"/>
<path d="M14.57 16.55C13.687 16.5705 12.8091 16.4106 11.99 16.08C11.2681 15.7783 10.6175 15.3286 10.08 14.76C9.54908 14.183 9.14385 13.5019 8.89 12.76C8.34998 11.1029 8.34998 9.31712 8.89 7.66001C9.14385 6.91811 9.54908 6.23705 10.08 5.66001C10.6175 5.09141 11.2681 4.64174 11.99 4.34C13.6488 3.70974 15.4812 3.70974 17.14 4.34C17.8647 4.63659 18.5164 5.08697 19.05 5.66001C19.5809 6.23705 19.9862 6.91811 20.24 7.66001C20.78 9.31712 20.78 11.1029 20.24 12.76C19.9862 13.5019 19.5809 14.183 19.05 14.76C18.5164 15.333 17.8647 15.7834 17.14 16.08C16.3242 16.4098 15.4497 16.5697 14.57 16.55ZM14.57 14.45C15.1042 14.468 15.6331 14.3401 16.1 14.08C16.5335 13.836 16.9034 13.4935 17.18 13.08C17.4632 12.6669 17.6698 12.2062 17.79 11.72C18.0598 10.7077 18.0598 9.64234 17.79 8.63C17.6698 8.14379 17.4632 7.68313 17.18 7.27C16.734 6.62004 16.0632 6.15821 15.2969 5.97356C14.5306 5.7889 13.7231 5.89451 13.03 6.27C12.601 6.51643 12.2348 6.85867 11.96 7.27C11.671 7.68714 11.4639 8.15547 11.35 8.65C11.0802 9.66234 11.0802 10.7277 11.35 11.74C11.4687 12.2206 11.6755 12.6749 11.96 13.08C12.2463 13.5071 12.6354 13.8555 13.0914 14.0932C13.5474 14.3308 14.0559 14.45 14.57 14.44V14.45Z" fill="black"/>
<path d="M19.9 4.17993H22.72L25.08 13.1799L27.34 4.17993H30.02L32.19 13.1799H32.24L34.68 4.17993H37.38L33.61 16.1799H30.88L28.64 7.22993L26.43 16.1799H23.63L19.9 4.17993Z" fill="black"/>
<path d="M38.66 4.17998H41.18V5.94998V5.99998C41.57 5.35155 42.1167 4.81165 42.77 4.42998C43.4279 4.04462 44.1776 3.84422 44.94 3.84998C46.0681 3.78432 47.1803 4.14078 48.06 4.84998C48.4615 5.25037 48.7713 5.73309 48.9681 6.26483C49.165 6.79658 49.2441 7.36469 49.2 7.92998V16.2H46.54V8.64998C46.5798 7.9151 46.3682 7.18857 45.94 6.58998C45.7117 6.36341 45.4372 6.1889 45.1351 6.07843C44.833 5.96796 44.5106 5.92414 44.19 5.94998C43.7731 5.94183 43.3596 6.02726 42.98 6.19998C42.6297 6.35124 42.3185 6.58038 42.07 6.86998C41.818 7.16559 41.6215 7.50439 41.49 7.86998C41.3759 8.26262 41.3286 8.67165 41.35 9.07998V16.19H38.69L38.66 4.17998Z" fill="black"/>
<path d="M53.57 12.36C53.5755 12.6834 53.6593 13.0007 53.8143 13.2846C53.9693 13.5684 54.1909 13.8105 54.46 13.99C55.0185 14.3127 55.6551 14.4754 56.3 14.46C56.5844 14.4602 56.8684 14.4401 57.15 14.4C57.4575 14.3618 57.7595 14.2879 58.05 14.18C58.3154 14.0781 58.5521 13.9134 58.74 13.7C58.9168 13.4503 59.0005 13.1465 58.9768 12.8415C58.953 12.5365 58.8233 12.2494 58.61 12.03C58.3477 11.7983 58.0417 11.6215 57.71 11.51C57.3022 11.3663 56.8844 11.2527 56.46 11.17L55.04 10.87C54.5568 10.7612 54.0795 10.6277 53.61 10.47C53.1684 10.3209 52.7508 10.1087 52.37 9.83998C52.0074 9.57748 51.7098 9.2354 51.5 8.83998C51.2718 8.36283 51.1588 7.83878 51.17 7.30999C51.1511 6.72613 51.3193 6.15151 51.65 5.66999C51.9658 5.22508 52.3798 4.85894 52.86 4.59999C53.3679 4.31868 53.9186 4.12273 54.49 4.01999C55.0576 3.91674 55.6331 3.8632 56.21 3.85999C56.8088 3.86169 57.4057 3.92876 57.99 4.05999C58.5371 4.18063 59.0585 4.39731 59.53 4.69999C59.9884 4.99672 60.3773 5.389 60.67 5.84999C60.9891 6.37217 61.1841 6.9606 61.24 7.56999H58.47C58.4414 7.30026 58.3459 7.04193 58.1923 6.81842C58.0386 6.59491 57.8316 6.41328 57.59 6.28999C57.0987 6.06163 56.5617 5.94875 56.02 5.95999C55.7991 5.96173 55.5786 5.97843 55.36 6.00999C55.1107 6.03692 54.8656 6.094 54.63 6.17999C54.4164 6.26243 54.2223 6.38844 54.06 6.54999C53.9026 6.72503 53.82 6.95478 53.83 7.18999C53.8228 7.34032 53.8497 7.49034 53.9085 7.62886C53.9674 7.76738 54.0568 7.89082 54.17 7.98999C54.4299 8.20966 54.7283 8.3792 55.05 8.48999C55.4584 8.62913 55.8761 8.7394 56.3 8.81999L57.74 9.11999C58.23 9.22999 58.74 9.36999 59.17 9.51999C59.6116 9.66906 60.0292 9.88126 60.41 10.15C60.7749 10.4157 61.0784 10.7567 61.3 11.15C61.5359 11.6105 61.6528 12.1227 61.64 12.64C61.6618 13.2819 61.4912 13.9158 61.15 14.46C60.8251 14.9554 60.3906 15.3695 59.88 15.67C59.3407 15.9895 58.753 16.2192 58.14 16.35C57.5198 16.49 56.8858 16.5605 56.25 16.56C55.5385 16.5636 54.8294 16.4762 54.14 16.3C53.5376 16.152 52.9701 15.887 52.47 15.52C51.9999 15.1804 51.6163 14.7351 51.35 14.22C51.0602 13.6468 50.9127 13.0122 50.92 12.37L53.57 12.36Z" fill="black"/>
<path d="M74.55 20.6799H71.89V14.6799C71.6737 14.9974 71.4146 15.2834 71.12 15.5299C70.8151 15.7713 70.4787 15.9698 70.12 16.1199C69.7613 16.2767 69.3853 16.3908 69 16.4599C68.6137 16.5279 68.2222 16.5614 67.83 16.5599C67.0696 16.5834 66.315 16.4207 65.6319 16.0861C64.9487 15.7515 64.3576 15.255 63.91 14.6399C63.4555 14.0411 63.1164 13.3628 62.91 12.6399C62.7014 11.8741 62.5971 11.0836 62.6 10.2899C62.5914 9.44708 62.7094 8.60772 62.95 7.79992C63.1512 7.07497 63.4907 6.39582 63.95 5.79992C64.4211 5.20909 65.0238 4.73652 65.71 4.41992C66.4889 4.06991 67.3363 3.89905 68.19 3.91992C68.9346 3.91714 69.6711 4.07399 70.35 4.37992C71.0271 4.68915 71.5802 5.2176 71.92 5.87992V4.17992H74.44L74.55 20.6799ZM65.27 10.2199C65.27 10.7418 65.3305 11.2619 65.45 11.7699C65.5583 12.2519 65.7549 12.7096 66.03 13.1199C66.2869 13.5218 66.6281 13.863 67.03 14.1199C67.501 14.3797 68.0322 14.5108 68.57 14.4999C69.0602 14.5354 69.5514 14.4458 69.9974 14.2394C70.4435 14.033 70.8298 13.7166 71.12 13.3199C71.7048 12.4096 71.9946 11.341 71.95 10.2599C72.0097 9.151 71.7079 8.05266 71.09 7.12992C70.7922 6.75165 70.4078 6.4506 69.9692 6.25218C69.5306 6.05376 69.0507 5.96381 68.57 5.98992C68.0636 5.98215 67.5639 6.10621 67.12 6.34992C66.7029 6.60486 66.345 6.94577 66.07 7.34992C65.7805 7.76203 65.5672 8.22263 65.44 8.70992C65.3205 9.20418 65.2634 9.71146 65.27 10.2199Z" fill="black"/>
<path d="M87.55 16.2299H84.94V14.5499C84.6004 15.1643 84.0944 15.6703 83.48 16.0099C82.8733 16.3659 82.1835 16.5556 81.48 16.5599C80.8559 16.6159 80.227 16.5398 79.6343 16.3365C79.0416 16.1332 78.4984 15.8072 78.04 15.3799C77.2594 14.3686 76.8817 13.1037 76.98 11.8299V4.17993H79.64V11.5699C79.5625 12.3661 79.7796 13.163 80.25 13.8099C80.4702 14.0338 80.736 14.2077 81.0293 14.3199C81.3226 14.432 81.6366 14.4798 81.95 14.4599C82.4298 14.4728 82.9069 14.3842 83.35 14.1999C83.7021 14.0472 84.0111 13.8103 84.25 13.5099C84.4925 13.2202 84.6637 12.8777 84.75 12.5099C84.8573 12.085 84.9111 11.6482 84.91 11.2099V4.20993H87.56L87.55 16.2299Z" fill="black"/>
<path d="M99.97 13.55C99.9527 13.7906 99.9975 14.0316 100.1 14.25C100.159 14.3237 100.236 14.3816 100.323 14.4182C100.411 14.4549 100.506 14.4692 100.6 14.46H100.88C101.005 14.4581 101.129 14.4413 101.25 14.41V16.25C101.134 16.2958 101.013 16.3293 100.89 16.35L100.44 16.46L99.97 16.53C99.8368 16.5389 99.7032 16.5389 99.57 16.53C99.099 16.5506 98.6316 16.4398 98.22 16.21C98.0286 16.0787 97.8672 15.9083 97.7466 15.7101C97.6259 15.5119 97.5487 15.2903 97.52 15.06C96.9712 15.5869 96.3017 15.9714 95.57 16.18C94.8525 16.4105 94.1036 16.5286 93.35 16.53C92.8218 16.5376 92.2955 16.4633 91.79 16.31C91.3142 16.1753 90.8669 15.955 90.47 15.66C90.0887 15.3655 89.7778 14.9897 89.56 14.56C89.3274 14.0769 89.211 13.5461 89.22 13.01C89.1993 12.3815 89.3405 11.7582 89.63 11.2C89.8899 10.7502 90.2576 10.3722 90.7 10.1C91.1645 9.82714 91.6716 9.63445 92.2 9.52996C92.7481 9.41001 93.3022 9.31988 93.86 9.25996C94.316 9.16815 94.7767 9.10139 95.24 9.05996C95.6286 9.02824 96.0135 8.9613 96.39 8.85996C96.6872 8.79015 96.9601 8.64162 97.18 8.42996C97.2844 8.31195 97.364 8.17406 97.4138 8.02456C97.4636 7.87506 97.4827 7.71703 97.47 7.55996C97.4885 7.26075 97.4038 6.96425 97.23 6.71996C97.0732 6.50348 96.8631 6.33124 96.62 6.21996C96.3672 6.09955 96.0974 6.01861 95.82 5.97996C95.5418 5.94008 95.2611 5.92003 94.98 5.91996C94.3346 5.89979 93.6967 6.06274 93.14 6.38996C92.8992 6.54726 92.6999 6.76026 92.5589 7.01092C92.4179 7.26158 92.3394 7.54252 92.33 7.82996H89.67C89.6894 7.14946 89.8821 6.48516 90.23 5.89996C90.5442 5.39741 90.9724 4.97601 91.48 4.66996C92.0045 4.34647 92.5842 4.12271 93.19 4.00996C93.8488 3.88206 94.5189 3.82174 95.19 3.82996C95.7747 3.82989 96.3577 3.89021 96.93 4.00996C97.4771 4.1252 98.0011 4.33139 98.48 4.61996C98.9288 4.88891 99.3089 5.25867 99.59 5.69996C99.8808 6.18919 100.027 6.75106 100.01 7.31996L99.97 13.55ZM97.35 10.19C96.8971 10.4709 96.3819 10.6358 95.85 10.67C95.26 10.73 94.67 10.81 94.08 10.92C93.8045 10.9617 93.5333 11.0287 93.27 11.12C93.0184 11.1958 92.7816 11.3142 92.57 11.47C92.3633 11.6193 92.1981 11.819 92.09 12.05C91.9701 12.3243 91.9088 12.6206 91.91 12.92C91.9091 13.1922 92.0008 13.4567 92.17 13.67C92.343 13.8693 92.5537 14.0324 92.79 14.15C93.0399 14.269 93.3062 14.3499 93.58 14.39C93.8378 14.4331 94.0986 14.4565 94.36 14.46C94.6971 14.4623 95.0331 14.4219 95.36 14.34C95.7147 14.268 96.0535 14.1325 96.36 13.94C96.6612 13.7604 96.9204 13.5183 97.12 13.23C97.3328 12.9188 97.4382 12.5465 97.42 12.17L97.35 10.19Z" fill="black"/>
<path d="M102.35 4.17997H104.84V6.50997H104.89C104.972 6.14831 105.129 5.80774 105.35 5.50997C105.583 5.19355 105.855 4.90794 106.16 4.65997C106.482 4.40717 106.839 4.20176 107.22 4.04997C107.596 3.88971 108.001 3.80804 108.41 3.80997C108.62 3.80997 108.84 3.80997 109.05 3.80997H109.41V6.37997C109.23 6.37997 109.04 6.31997 108.84 6.28997C108.65 6.28001 108.46 6.28001 108.27 6.28997C107.832 6.2887 107.399 6.38075 107 6.55997C106.612 6.74532 106.27 7.01527 106 7.34997C105.689 7.73312 105.452 8.17048 105.3 8.63997C105.123 9.21282 105.038 9.8104 105.05 10.41V16.15H102.35V4.17997Z" fill="black"/>
<path d="M111.76 10.89C111.76 11.3473 111.828 11.8021 111.96 12.24C112.083 12.6589 112.287 13.0497 112.56 13.39C112.834 13.7182 113.175 13.9842 113.56 14.17C114.013 14.3713 114.504 14.4703 115 14.46C115.663 14.4872 116.318 14.3129 116.88 13.96C117.381 13.5831 117.752 13.0585 117.94 12.46H120.46C120.19 13.6739 119.477 14.7435 118.46 15.46C117.968 15.8119 117.42 16.0789 116.84 16.2499C116.23 16.4297 115.596 16.5206 114.96 16.5199C114.1 16.5403 113.245 16.3802 112.45 16.05C111.741 15.7606 111.105 15.3164 110.59 14.7499C110.078 14.1679 109.69 13.4873 109.45 12.7499C109.188 11.9221 109.06 11.058 109.07 10.19C109.063 9.35973 109.198 8.53443 109.47 7.74995C109.733 7.01658 110.129 6.33841 110.64 5.74995C111.476 4.82101 112.593 4.19043 113.82 3.95399C115.048 3.71754 116.318 3.88817 117.44 4.43995C118.193 4.83486 118.846 5.39565 119.35 6.07995C119.854 6.75208 120.221 7.51652 120.43 8.32995C120.659 9.18678 120.72 10.0799 120.61 10.96L111.76 10.89ZM117.96 9.13995C117.928 8.72673 117.841 8.3197 117.7 7.92995C117.557 7.56356 117.35 7.22512 117.09 6.92995C116.829 6.63814 116.513 6.40033 116.16 6.22995C115.775 6.05 115.355 5.95778 114.93 5.95995C114.494 5.95863 114.063 6.0436 113.66 6.20995C113.281 6.3561 112.939 6.585 112.66 6.87995C112.383 7.17211 112.16 7.51058 112 7.87995C111.839 8.27767 111.751 8.70107 111.74 9.12995L117.96 9.13995Z" fill="black"/>
<path d="M174.25 72.6499C174.25 72.6499 172.81 89.6499 187.71 89.9499C191.9 90.1338 196.098 89.9262 200.25 89.3299V78.7999C198.461 79.234 196.618 79.4058 194.78 79.3099C194.78 79.3099 188.42 80.0299 188.1 74.4899V37.7299H200.25V27.5499H187.92V3.68994H174.27C174.27 3.68994 174.15 72.7599 174.25 72.6499Z" fill="black"/>
<path d="M165.35 21.0799L167.97 3.88989H141.73L144.35 21.0799H165.35Z" fill="#EF4136"/>
<path d="M145.35 27.5599L154.75 89.3299H154.99L164.35 27.5599H145.35Z" fill="#EF4136"/>
</svg>
